<svg width="284" height="178" viewBox="0 0 284 178" fill="none" xmlns="http://www.w3.org/2000/svg">
<g clip-path="url(#clip0_1_15)" filter="url(#filter0_ddd_1_15)">
<path d="M62.5669 40.034L73.0052 53.8054C73.0052 53.8054 81.9048 57.4222 92.3062 64.6842L89.8164 68.4406C89.8164 68.4406 72.6483 61.6464 68.2548 58.7757L60.2321 46.6201L62.5669 40.034Z" fill="#E8BEAC"/>
<path d="M98.548 71.3545C99.5441 69.9456 98.3613 67.489 95.9061 65.8675C93.451 64.246 90.6531 64.0737 89.6569 65.4826C88.6608 66.8914 89.8435 69.348 92.2987 70.9695C94.7539 72.591 97.5518 72.7633 98.548 71.3545Z" fill="#E8BEAC"/>
<path d="M57.4648 28.2776L60.8808 27.3411C60.8808 27.3411 62.8693 27.3448 63.9911 29.2324C65.1129 31.12 73.0556 47.9504 72.6792 48.6023C72.3027 49.2543 71.7771 49.3984 72.4517 49.7622C73.1264 50.1261 73.744 49.9417 73.2842 50.4869C72.8244 51.032 73.4599 52.2298 73.4599 52.2298L64.6972 58.4781L57.4648 28.2776V28.2776Z" fill="#9E5A64"/>
<path d="M44.2115 166.67L48.379 166.67L50.3615 151.134L44.2106 151.135L44.2115 166.67Z" fill="#A0616A"/>
<path d="M58.4899 166.579C58.6197 166.79 58.6882 167.472 58.6882 167.718C58.6882 168.473 58.0549 169.085 57.2737 169.085H44.3674C43.8344 169.085 43.4024 168.667 43.4024 168.152V167.633C43.4024 167.633 42.7639 166.072 44.0784 164.148C44.0784 164.148 45.7122 165.654 48.1534 163.295L48.8733 162.035L54.0843 165.718L56.9727 166.062C57.6046 166.137 58.1649 166.05 58.4899 166.579V166.579Z" fill="#2F2E41"/>
<path d="M59.2952 162.745L63.4052 163.412L68.0236 148.408L61.9577 147.424L59.2952 162.745Z" fill="#A0616A"/>
<path d="M73.3919 164.941C73.4837 165.171 73.4344 165.854 73.3923 166.096C73.2628 166.841 72.5334 167.343 71.763 167.218L59.035 165.151C58.5095 165.066 58.155 164.585 58.2433 164.077L58.3323 163.565C58.3323 163.565 57.9702 161.923 59.5964 160.236C59.5964 160.236 60.9493 161.984 63.7612 160.048L64.6873 158.92L69.1948 163.387L71.9844 164.188C72.5947 164.364 73.1621 164.368 73.392 164.941H73.3919Z" fill="#2F2E41"/>
<path d="M67.8382 83.028C67.8382 83.028 73.4375 89.3634 73.4375 95.1709C73.4375 100.978 73.5741 119.222 73.5741 119.222C73.5741 119.222 70.2965 147.702 69.4771 150.078C68.6577 152.454 68.2479 156.414 68.2479 156.414L60.327 154.566C60.327 154.566 59.2344 127.772 62.5121 121.437L54.5911 99.7905L51.8597 161.033H42.6645C42.6645 161.033 37.9298 128.828 40.388 120.381C40.388 120.381 34.9253 88.1756 36.291 86.3277C37.6566 84.4799 67.8382 83.028 67.8382 83.028Z" fill="#2F2E41"/>
<path d="M47.4895 19.9374L54.8642 20.4654L57.3225 24.425C57.3225 24.425 63.0583 26.8008 63.8778 30.2325C64.6972 33.6642 64.9703 73.7888 64.9703 73.7888L69.0673 79.5963L68.7942 84.6119L36.0178 86.1957V81.3735L33.0133 75.6366C33.0133 75.6366 36.2909 29.7046 37.1104 29.4406C37.9298 29.1766 44.2119 24.953 44.2119 24.953L47.4895 19.9374Z" fill="#9E5A64"/>
<path d="M50.8272 18.9551C55.9561 18.9551 60.1139 14.9368 60.1139 9.97988C60.1139 5.023 55.9561 1.00465 50.8272 1.00465C45.6984 1.00465 41.5406 5.023 41.5406 9.97988C41.5406 14.9368 45.6984 18.9551 50.8272 18.9551Z" fill="#E8BEAC"/>
<path d="M58.2451 2.76084C57.7726 1.46558 56.4617 0.679781 55.0409 0.710389C54.9807 0.711671 54.9205 0.711133 54.861 0.708767C54.1455 0.680494 53.4587 0.444318 52.7572 0.305766C51.4496 0.0475168 50.0709 0.133979 48.8089 0.553353C48.4166 0.683716 48.0238 0.847644 47.609 0.847689C47.1942 0.847745 46.7423 0.627907 46.6412 0.239119C46.6171 0.591121 46.5932 0.943105 46.5692 1.29509C46.4342 1.0102 46.2993 0.725293 46.1642 0.44039L45.8939 1.57655L45.0278 0.62701C45.1053 1.04554 44.8528 1.46736 44.511 1.73494C44.1691 2.00254 43.7469 2.15056 43.3422 2.31727C41.5955 3.03684 39.9555 4.31082 39.4522 6.08028C39.1342 7.19821 39.3006 8.38467 39.4691 9.53257C39.618 10.5474 39.7799 11.5972 40.3507 12.4611C40.7165 13.0148 41.2439 13.4808 41.4667 14.1016C41.6743 14.6802 41.5956 15.3427 41.8911 15.8845C42.1878 16.4287 42.8003 16.7366 43.3997 16.9434C43.9991 17.1503 44.6363 17.2965 45.1525 17.6564C45.6687 18.0163 46.2678 19.053 47.3925 18.9972L47.7555 18.3381C48.1289 18.0441 46.747 18.2772 46.7326 17.8119C46.7182 17.3466 48.3954 17.0591 48.1577 16.6542C47.7931 16.0333 47.2999 15.493 46.8891 14.8996C46.4087 14.2057 46.031 13.395 46.1967 12.548C46.2612 12.2186 46.4207 11.9074 46.6638 11.6681C47.3643 10.9782 48.1454 11.2814 48.9046 11.3801C49.4278 11.4482 50.0527 11.3696 50.3244 10.9321C50.6422 10.4202 50.288 9.76902 50.3313 9.17354C50.3772 8.54256 50.8718 8.02516 51.4101 7.66543C51.9485 7.30571 52.5597 7.04363 53.044 6.61817C53.5282 6.19267 53.8732 5.52795 53.6621 4.92924C55.9576 4.00561 56.309 3.91825 58.7262 4.48151C58.611 3.8973 58.4497 3.32168 58.2451 2.76084Z" fill="#2F2E41"/>
<path d="M19.0399 117.553V90.3102C19.0399 89.5631 19.3694 88.8479 19.9441 88.348C20.5186 87.8482 21.289 87.6064 22.058 87.6847C29.1818 86.7585 35.8913 87.199 41.9719 89.7141C42.6607 89.7141 43.221 90.2557 43.221 90.9213V118.259C43.221 118.925 42.6607 119.467 41.9719 119.467C35.2786 117.949 28.2189 118.344 21.0198 119.467C19.9281 119.467 19.0399 118.608 19.0399 117.553Z" fill="#E6E6E6"/>
<path d="M19.0399 119.978V92.4475C19.0399 90.9917 20.2653 89.8074 21.7716 89.8074C28.5837 88.0848 35.3173 88.0818 41.9719 89.8074C42.6607 89.8074 43.2211 90.3489 43.2211 91.0146V118.073C43.2211 118.737 42.6624 119.278 41.975 119.28C35.4134 118.177 28.3846 119.251 21.0198 121.892C19.9281 121.892 19.0399 121.033 19.0399 119.978Z" fill="#F2F2F2"/>
<path d="M34.7701 101.185H28.4002C26.1125 101.185 24.2513 99.386 24.2513 97.175C24.2513 94.964 26.1125 93.1651 28.4002 93.1651H34.7701C37.058 93.1651 38.9191 94.964 38.9191 97.175C38.9191 99.386 37.058 101.185 34.7701 101.185Z" fill="#E6E6E6"/>
<path d="M40.6082 47.1108L40.3648 61.3244C40.3648 61.3244 39.5866 72.4017 37.654 84.8677L33.0475 85.1517C33.0475 85.1517 33.6143 65.6876 33.4078 60.566L33.7336 49.1904L40.6082 47.1108H40.6082Z" fill="#E8BEAC"/>
<path d="M35.786 93.6781C37.5506 93.6201 38.8992 91.2447 38.7981 88.3724C38.6971 85.5001 37.1847 83.2186 35.4201 83.2766C33.6555 83.3345 32.3069 85.71 32.4079 88.5823C32.509 91.4546 34.0214 93.7361 35.786 93.6781Z" fill="#E8BEAC"/>
<path d="M40.5366 29.0152L36.9882 29.1401C36.9882 29.1401 35.0974 29.7349 34.631 31.8646C34.1647 33.9942 30.8954 56.0339 31.4612 56.5423C32.027 57.0507 32.5729 57.0315 32.0469 57.5783C31.5209 58.1251 30.8745 58.1333 31.4855 58.5153C32.0966 58.8973 31.8734 60.2259 31.8734 60.2259L41.6875 59.5539L40.5366 29.0152Z" fill="#9E5A64"/>
<path d="M274.653 156.004H180.241C179.694 156.004 179.151 155.923 178.629 155.764L178.574 155.742C149.011 141.543 123.665 133.793 101.087 132.05L101.001 132.033C98.7672 131.35 97.2667 129.37 97.2667 127.106V5.17177C97.2667 3.50679 98.0639 1.98742 99.4536 1.00347C100.843 0.0195207 102.582 -0.256578 104.226 0.245069L178.862 23.0612C179.309 23.1979 179.773 23.267 180.241 23.267H274.653C277.602 23.267 280 25.5851 280 28.4343V150.837C280 153.686 277.602 156.004 274.653 156.004ZM178.89 155.06C179.328 155.19 179.783 155.257 180.241 155.257H274.653C277.175 155.257 279.227 153.274 279.227 150.837V28.4343C279.227 25.9972 277.175 24.0145 274.653 24.0145H180.241C179.694 24.0145 179.152 23.9337 178.629 23.774L103.992 0.957852C102.587 0.52792 101.099 0.764785 99.9107 1.6064C98.7219 2.4482 98.0401 3.74766 98.0401 5.17177V127.106C98.0401 129.029 99.3052 130.712 101.193 131.308C123.853 133.066 149.269 140.835 178.89 155.06Z" fill="#3F3D56"/>
<path d="M182.762 150.467C208.505 141.663 237.223 142.674 267.731 149.589C271.561 150.457 275.233 147.67 275.233 143.868V32.455C275.233 29.7495 273.325 27.3839 270.606 26.7412C238.422 19.1349 208.36 17.7355 181.867 26.774C179.927 27.4361 177.772 27.0774 176.135 25.8725C153.81 9.44864 130.963 1.21385 107.433 3.65897C104.355 3.97884 102.033 6.51413 102.033 9.50619V122.134C102.033 125.15 104.394 127.672 107.498 127.984C132.824 130.529 156.096 138.245 177.739 150.059C179.271 150.896 181.103 151.035 182.762 150.467Z" fill="#F2F2F2"/>
<path d="M181.936 144.219C180.183 144.219 178.456 143.754 176.934 142.841C158.758 131.931 138.955 125.557 118.076 123.897C113.182 123.508 109.347 119.473 109.347 114.711V18.5077C109.347 13.57 113.309 9.52419 118.367 9.29699C133.569 8.61195 152.026 15.1637 176.451 29.9082C178.517 31.1551 181.029 31.5254 183.344 30.9253C206.557 24.9034 231.719 24.7275 260.27 30.3876C264.702 31.2664 267.92 35.0686 267.92 39.4287V133.332C267.92 136.165 266.601 138.797 264.302 140.553C261.985 142.321 259.005 142.955 256.124 142.292C229.115 136.079 205.923 136.528 185.22 143.665C184.145 144.036 183.035 144.219 181.936 144.219ZM120.538 9.99627C119.818 9.99627 119.108 10.012 118.403 10.0437C113.759 10.2523 110.121 13.97 110.121 18.5077V114.711C110.121 119.087 113.643 122.795 118.14 123.152C139.142 124.822 159.061 131.232 177.342 142.205C179.617 143.571 182.394 143.846 184.96 142.962L185.09 143.314L184.96 142.962C205.807 135.774 229.144 135.317 256.303 141.565C258.952 142.174 261.692 141.592 263.822 139.966C265.935 138.353 267.146 135.935 267.146 133.332V39.4287C267.146 35.4219 264.189 31.9275 260.114 31.1197C231.684 25.4831 206.638 25.6558 183.545 31.6473C181.023 32.3009 178.288 31.8985 176.041 30.5421C152.894 16.5692 135.169 9.99627 120.538 9.99627Z" fill="white"/>
<path d="M180.18 31.4836L179.406 31.4905L180.483 144.048L181.256 144.041L180.18 31.4836Z" fill="white"/>
<path d="M116.887 24.0556L116.644 24.765L170.794 42.0815L171.037 41.372L116.887 24.0556Z" fill="#3F3D56"/>
<path d="M116.887 37.9088L116.644 38.6183L170.794 55.9347L171.037 55.2253L116.887 37.9088Z" fill="#3F3D56"/>
<path d="M116.887 51.7619L116.644 52.4714L170.794 69.7878L171.037 69.0784L116.887 51.7619Z" fill="#3F3D56"/>
<path d="M116.887 65.615L116.644 66.3244L170.794 83.6409L171.037 82.9314L116.887 65.615Z" fill="#3F3D56"/>
<path d="M258.113 42.1227H193.212V42.8702H258.113V42.1227Z" fill="#3F3D56"/>
<path d="M258.113 55.2063H193.212V55.9537H258.113V55.2063Z" fill="#3F3D56"/>
<path d="M258.113 68.2896H193.212V69.0371H258.113V68.2896Z" fill="#3F3D56"/>
<path d="M258.113 81.3734H193.212V82.1208H258.113V81.3734Z" fill="#3F3D56"/>
<path d="M258.113 94.4567H193.212V95.2042H258.113V94.4567Z" fill="#3F3D56"/>
<path d="M258.113 107.54H193.212V108.288H258.113V107.54Z" fill="#3F3D56"/>
<path d="M24.9816 163.522C24.1827 163.571 23.7412 162.611 24.3456 162.052L24.4057 161.821C24.3978 161.803 24.3899 161.784 24.3818 161.766C23.574 159.904 20.8359 159.917 20.0349 161.781C19.3239 163.436 18.4187 165.094 18.1958 166.844C18.0959 167.616 18.1409 168.403 18.3182 169.161C16.6523 165.644 15.7756 161.804 15.7756 157.942C15.7756 156.971 15.8306 156.001 15.943 155.033C16.0354 154.241 16.1628 153.454 16.3276 152.674C17.2193 148.46 19.1499 144.446 21.9347 141.093C23.2735 140.386 24.3899 139.28 25.0642 137.955C25.3065 137.477 25.4963 136.963 25.5862 136.439C25.4339 136.458 25.0118 134.216 25.1267 134.078C24.9144 133.767 24.5344 133.612 24.3025 133.308C23.1492 131.797 21.5604 132.061 20.7309 134.114C18.959 134.979 18.9418 136.412 20.0291 137.791C20.7208 138.668 20.8158 139.855 21.4227 140.793C21.3603 140.871 21.2953 140.946 21.2329 141.023C20.0879 142.442 19.0975 143.968 18.2627 145.571C18.4986 143.789 18.1503 141.643 17.5564 140.26C16.8804 138.684 15.6133 137.357 14.4975 135.994C13.1572 134.357 10.4088 135.072 10.1727 137.146C10.1704 137.166 10.1682 137.186 10.166 137.207C10.3318 137.297 10.4941 137.393 10.6527 137.494C11.5574 138.073 11.2447 139.428 10.1728 139.588L10.1485 139.591C10.2085 140.168 10.3109 140.74 10.4607 141.303C9.02927 146.653 12.1197 148.602 16.5324 148.689C16.6298 148.737 16.7247 148.786 16.8221 148.832C16.3751 150.048 16.0179 151.296 15.7532 152.561C15.5159 153.679 15.351 154.808 15.2586 155.943C15.1437 157.374 15.1537 158.813 15.2786 160.242L15.2711 160.191C14.9539 158.617 14.0698 157.147 12.786 156.129C10.8736 154.61 8.17164 154.051 6.10846 152.831C5.1153 152.243 3.84264 153.003 4.01598 154.115L4.02441 154.169C4.33162 154.289 4.63132 154.429 4.92105 154.586C5.08678 154.677 5.24915 154.773 5.40775 154.874C6.31242 155.452 5.99977 156.808 4.92784 156.968L4.90355 156.971C4.88607 156.974 4.87108 156.976 4.85362 156.978C5.38062 158.188 6.11489 159.31 7.03401 160.278C7.92907 164.949 11.7734 165.392 15.8855 164.032H15.888C16.3376 165.924 16.9945 167.773 17.8387 169.535H24.807C24.832 169.46 24.8544 169.383 24.8769 169.308C24.2325 169.347 23.5832 169.311 22.9488 169.197C23.4658 168.584 23.9828 167.966 24.4998 167.353C24.5123 167.341 24.5223 167.329 24.5323 167.317C24.7945 167.003 25.0592 166.692 25.3215 166.378L25.3216 166.378C25.338 165.414 25.2186 164.454 24.9818 163.522L24.9816 163.522Z" fill="#F2F2F2"/>
<path d="M102.92 169.555C102.92 169.802 102.715 170 102.46 170H4.51437C4.25916 170 4.0542 169.802 4.0542 169.555C4.0542 169.309 4.25916 169.111 4.51437 169.111H102.46C102.715 169.111 102.92 169.309 102.92 169.555Z" fill="#CCCCCC"/>
<path d="M260.838 145.914C265.75 145.914 269.732 142.065 269.732 137.318C269.732 132.571 265.75 128.722 260.838 128.722C255.926 128.722 251.944 132.571 251.944 137.318C251.944 142.065 255.926 145.914 260.838 145.914Z" fill="#9E5A64"/>
<path d="M265.003 136.994L259.485 133.914C259.227 133.771 258.905 133.95 258.905 134.238V136.944H257.25C257.036 136.944 256.863 137.111 256.863 137.318C256.863 137.524 257.036 137.692 257.25 137.692H258.905V140.397C258.905 140.685 259.227 140.865 259.485 140.721L265.003 137.641C265.261 137.498 265.261 137.138 265.003 136.994Z" fill="white"/>
<path d="M134.188 113.088C134.534 109.257 136.18 105.598 138.813 102.718C141.379 99.9131 144.885 97.9888 148.667 97.2048C150.778 96.7672 152.965 96.6818 155.102 96.9766C155.614 97.0471 155.601 97.8324 155.083 97.7611C151.445 97.2594 147.684 97.8724 144.415 99.4961C141.064 101.16 138.382 103.867 136.725 107.131C135.778 108.998 135.187 111.035 135 113.106C134.954 113.608 134.142 113.592 134.188 113.088Z" fill="white"/>
<path d="M154.202 93.8269L160.452 96.8071C160.679 96.9155 160.717 97.2733 160.524 97.4276L154.607 102.154C154.207 102.474 153.643 101.909 154.046 101.587L159.963 96.8599L160.035 97.4804L153.785 94.5002C153.315 94.2764 153.737 93.6049 154.202 93.8269Z" fill="white"/>
</g>
<defs>
<filter id="filter0_ddd_1_15" x="0" y="0" width="284" height="178" filterUnits="userSpaceOnUse" color-interpolation-filters="sRGB">
<feFlood flood-opacity="0" result="BackgroundImageFix"/>
<feColorMatrix in="SourceAlpha" type="matrix" values="0 0 0 0 0 0 0 0 0 0 0 0 0 0 0 0 0 0 127 0" result="hardAlpha"/>
<feOffset dy="4"/>
<feGaussianBlur stdDeviation="2"/>
<feComposite in2="hardAlpha" operator="out"/>
<feColorMatrix type="matrix" values="0 0 0 0 0 0 0 0 0 0 0 0 0 0 0 0 0 0 0.25 0"/>
<feBlend mode="normal" in2="BackgroundImageFix" result="effect1_dropShadow_1_15"/>
<feColorMatrix in="SourceAlpha" type="matrix" values="0 0 0 0 0 0 0 0 0 0 0 0 0 0 0 0 0 0 127 0" result="hardAlpha"/>
<feOffset dy="4"/>
<feGaussianBlur stdDeviation="2"/>
<feComposite in2="hardAlpha" operator="out"/>
<feColorMatrix type="matrix" values="0 0 0 0 0 0 0 0 0 0 0 0 0 0 0 0 0 0 0.25 0"/>
<feBlend mode="normal" in2="effect1_dropShadow_1_15" result="effect2_dropShadow_1_15"/>
<feColorMatrix in="SourceAlpha" type="matrix" values="0 0 0 0 0 0 0 0 0 0 0 0 0 0 0 0 0 0 127 0" result="hardAlpha"/>
<feOffset dy="4"/>
<feGaussianBlur stdDeviation="2"/>
<feComposite in2="hardAlpha" operator="out"/>
<feColorMatrix type="matrix" values="0 0 0 0 0 0 0 0 0 0 0 0 0 0 0 0 0 0 0.25 0"/>
<feBlend mode="normal" in2="effect2_dropShadow_1_15" result="effect3_dropShadow_1_15"/>
<feBlend mode="normal" in="SourceGraphic" in2="effect3_dropShadow_1_15" result="shape"/>
</filter>
<clipPath id="clip0_1_15">
<rect width="276" height="170" fill="white" transform="translate(4)"/>
</clipPath>
</defs>
</svg>
