<svg width="213" height="167" viewBox="0 0 213 167" fill="none" xmlns="http://www.w3.org/2000/svg">
<g clip-path="url(#clip0_9_116)">
<path d="M193.886 152.453C189.803 156.819 185.124 160.588 179.988 163.651C179.87 163.723 179.75 163.791 179.63 163.861L171.315 156.512C171.402 156.431 171.499 156.34 171.603 156.24C177.799 150.365 208.556 109.288 210.606 99.2857C210.464 100.119 212.455 132.799 193.886 152.453Z" fill="#F0F0F0"/>
<path d="M181.592 165.069C181.435 165.106 181.275 165.141 181.114 165.173L174.876 159.659C174.998 159.617 175.141 159.567 175.304 159.511C177.98 158.564 185.952 155.707 193.885 152.453C202.409 148.955 210.893 145.002 212.717 142.47C212.326 143.059 200.27 160.898 181.592 165.069Z" fill="#F0F0F0"/>
<path d="M193.77 43.7368H192.882V19.4339C192.882 17.5867 192.518 15.7576 191.81 14.0511C191.102 12.3445 190.064 10.7939 188.757 9.48776C187.449 8.18162 185.896 7.14553 184.187 6.43865C182.478 5.73178 180.646 5.36795 178.797 5.36795H127.236C125.386 5.36795 123.555 5.73177 121.846 6.43864C120.137 7.14551 118.584 8.1816 117.276 9.48774C115.968 10.7939 114.931 12.3445 114.223 14.051C113.515 15.7576 113.151 17.5867 113.151 19.4338V152.762C113.151 154.609 113.515 156.438 114.223 158.145C114.931 159.851 115.968 161.402 117.276 162.708C118.584 164.014 120.137 165.05 121.846 165.757C123.555 166.464 125.386 166.828 127.236 166.828H178.797C180.646 166.828 182.478 166.464 184.187 165.757C185.896 165.05 187.449 164.014 188.756 162.708C190.064 161.402 191.102 159.851 191.81 158.145C192.518 156.438 192.882 154.609 192.882 152.762V61.0361H193.77V43.7368Z" fill="#3F3D56"/>
<path d="M189.884 19.5305V152.665C189.884 154.044 189.612 155.41 189.083 156.684C188.554 157.959 187.779 159.117 186.802 160.092C185.825 161.067 184.665 161.841 183.389 162.368C182.113 162.896 180.745 163.167 179.363 163.167H127.555C126.173 163.167 124.806 162.895 123.53 162.367C122.254 161.84 121.095 161.066 120.118 160.091C119.141 159.116 118.367 157.958 117.838 156.684C117.31 155.409 117.038 154.044 117.038 152.665V19.5305C117.038 18.1513 117.31 16.7856 117.838 15.5114C118.367 14.2372 119.141 13.0794 120.118 12.1041C121.095 11.1289 122.254 10.3553 123.53 9.8276C124.806 9.29985 126.173 9.02828 127.555 9.02838H133.842C133.533 9.78619 133.416 10.6081 133.5 11.4219C133.584 12.2356 133.867 13.0163 134.324 13.6952C134.781 14.374 135.398 14.9304 136.121 15.3152C136.844 15.7 137.651 15.9016 138.47 15.9021H168.008C168.827 15.9029 169.634 15.7022 170.358 15.3177C171.082 14.9333 171.7 14.3768 172.157 13.6976C172.614 13.0183 172.897 12.237 172.981 11.4227C173.064 10.6084 172.946 9.78614 172.636 9.02838H179.363C180.745 9.02788 182.113 9.29916 183.389 9.82671C184.665 10.3543 185.825 11.1278 186.802 12.103C187.779 13.0783 188.554 14.2362 189.083 15.5106C189.612 16.7851 189.884 18.151 189.884 19.5305Z" fill="white"/>
<path d="M173.768 88.7141H128.23C127.432 88.7132 126.667 88.3963 126.103 87.8331C125.539 87.2699 125.222 86.5062 125.221 85.7097V84.2143C125.222 83.4178 125.539 82.6541 126.103 82.0909C126.667 81.5277 127.432 81.2109 128.23 81.21H173.768C174.565 81.2109 175.33 81.5277 175.894 82.0909C176.458 82.6541 176.775 83.4178 176.776 84.2143V85.7097C176.775 86.5062 176.458 87.2699 175.894 87.8331C175.33 88.3963 174.565 88.7132 173.768 88.7141Z" fill="#F0F0F0"/>
<path d="M173.768 101.605H128.23C127.432 101.604 126.667 101.287 126.103 100.724C125.539 100.161 125.222 99.3969 125.221 98.6004V97.105C125.222 96.3084 125.539 95.5448 126.103 94.9816C126.667 94.4184 127.432 94.1015 128.23 94.1006H173.768C174.565 94.1015 175.33 94.4184 175.894 94.9816C176.458 95.5448 176.775 96.3084 176.776 97.105V98.6004C176.775 99.3969 176.458 100.161 175.894 100.724C175.33 101.287 174.565 101.604 173.768 101.605Z" fill="#F0F0F0"/>
<path d="M176.046 85.831H130.508C129.67 85.8301 128.867 85.4974 128.275 84.906C127.683 84.3146 127.35 83.5128 127.349 82.6765V81.1811C127.35 80.3447 127.683 79.5429 128.275 78.9515C128.867 78.3602 129.67 78.0275 130.508 78.0266H176.046C176.883 78.0275 177.686 78.3602 178.278 78.9515C178.871 79.5429 179.204 80.3447 179.205 81.1811V82.6765C179.204 83.5128 178.871 84.3146 178.278 84.906C177.686 85.4974 176.883 85.8301 176.046 85.831ZM130.508 78.6274C129.83 78.6282 129.18 78.8975 128.7 79.3762C128.221 79.8549 127.951 80.504 127.95 81.1811V82.6765C127.951 83.3535 128.221 84.0026 128.7 84.4814C129.18 84.9601 129.83 85.2294 130.508 85.2302H176.046C176.724 85.2294 177.374 84.9601 177.853 84.4814C178.333 84.0026 178.602 83.3535 178.603 82.6765V81.1811C178.602 80.504 178.333 79.8549 177.853 79.3762C177.374 78.8975 176.724 78.6282 176.046 78.6274H130.508Z" fill="#3F3D56"/>
<path d="M176.046 98.7217H130.508C129.67 98.7207 128.867 98.3881 128.275 97.7967C127.683 97.2053 127.35 96.4035 127.349 95.5672V94.0718C127.35 93.2354 127.683 92.4336 128.275 91.8422C128.867 91.2508 129.67 90.9182 130.508 90.9172H176.046C176.883 90.9182 177.686 91.2508 178.278 91.8422C178.871 92.4336 179.204 93.2354 179.205 94.0718V95.5672C179.204 96.4035 178.871 97.2053 178.278 97.7967C177.686 98.3881 176.883 98.7207 176.046 98.7217ZM130.508 91.5181C129.83 91.5188 129.18 91.7881 128.7 92.2669C128.221 92.7456 127.951 93.3947 127.95 94.0718V95.5672C127.951 96.2442 128.221 96.8933 128.7 97.3721C129.18 97.8508 129.83 98.1201 130.508 98.1208H176.046C176.724 98.1201 177.374 97.8508 177.853 97.3721C178.333 96.8933 178.602 96.2442 178.603 95.5672V94.0718C178.602 93.3947 178.333 92.7456 177.853 92.2669C177.374 91.7881 176.724 91.5188 176.046 91.5181H130.508Z" fill="#3F3D56"/>
<path d="M189.884 19.5305V48.489C185.276 49.6996 180.451 49.8384 175.782 48.895C171.112 47.9515 166.721 45.9508 162.946 43.0468C159.172 40.1428 156.115 36.4129 154.011 32.1441C151.907 27.8753 150.811 23.1814 150.809 18.4234C150.809 17.5741 150.843 16.7337 150.911 15.9021H168.007C168.827 15.9029 169.634 15.7022 170.358 15.3177C171.082 14.9333 171.7 14.3768 172.157 13.6976C172.614 13.0183 172.897 12.237 172.981 11.4227C173.064 10.6084 172.946 9.78614 172.636 9.02838H179.363C180.745 9.02788 182.113 9.29916 183.389 9.82671C184.665 10.3543 185.825 11.1278 186.802 12.103C187.779 13.0783 188.554 14.2362 189.083 15.5106C189.612 16.7851 189.884 18.151 189.884 19.5305Z" fill="#F0F0F0"/>
<path d="M143.216 161.358C143.216 161.968 143.193 162.571 143.144 163.167H127.555C126.173 163.167 124.806 162.895 123.53 162.367C122.254 161.84 121.095 161.066 120.118 160.091C119.141 159.116 118.367 157.958 117.838 156.684C117.31 155.409 117.038 154.044 117.038 152.664V138.424C120.306 138 123.626 138.276 126.779 139.234C129.931 140.192 132.843 141.81 135.32 143.98C137.797 146.15 139.782 148.822 141.144 151.819C142.505 154.815 143.212 158.067 143.216 161.358H143.216Z" fill="#9E5A64"/>
<path d="M17.4857 136.371C17.9237 136.564 18.4203 136.575 18.8664 136.402C19.3126 136.229 19.6719 135.887 19.8657 135.45L33.909 103.666C34.2304 102.939 34.3287 102.133 34.1912 101.35C34.0538 100.566 33.6869 99.8416 33.137 99.2668C32.587 98.6919 31.8787 98.2928 31.1017 98.12C30.3246 97.9471 29.5136 98.0083 28.7713 98.2957H28.7713C27.9137 98.6228 27.1961 99.2364 26.7405 100.032C26.6681 100.158 26.6023 100.288 26.5436 100.421L12.5003 132.205C12.4046 132.421 12.3525 132.654 12.3471 132.891C12.3417 133.128 12.383 133.363 12.4687 133.584C12.5544 133.805 12.6828 134.006 12.8465 134.177C13.0103 134.349 13.2062 134.486 13.4231 134.581L17.4857 136.371Z" fill="#9E5A64"/>
<path d="M33.3325 116.715L19.4418 113.632L22.8799 104.55C23.4656 102.33 24.8287 100.393 26.7218 99.0905C28.615 97.7881 30.9129 97.2065 33.1987 97.451L33.3325 97.4658L33.3325 116.715Z" fill="#2F2E41"/>
<path d="M61.3894 136.826C60.9809 136.825 60.5813 136.706 60.2389 136.484C59.8966 136.261 59.6262 135.944 59.4604 135.571L45.4171 103.787C44.9705 102.776 44.929 101.632 45.3011 100.591C45.6732 99.5505 46.4307 98.6916 47.4177 98.1914C48.4046 97.6912 49.546 97.5877 50.607 97.9023C51.668 98.2169 52.568 98.9256 53.1217 99.8826V99.8825C53.1995 100.018 53.27 100.157 53.333 100.3L67.3764 132.083C67.6018 132.594 67.6151 133.173 67.4132 133.693C67.2112 134.213 66.8107 134.631 66.2998 134.856L62.0995 136.707L62.0974 136.702C61.8703 136.784 61.6308 136.826 61.3894 136.826Z" fill="#9E5A64"/>
<path d="M41.9639 125.912C41.4853 125.912 41.0265 126.102 40.6881 126.44C40.3496 126.778 40.1593 127.236 40.1588 127.714V164.672C40.1593 165.149 40.3496 165.608 40.6881 165.946C41.0265 166.283 41.4853 166.474 41.9639 166.474H46.4042C46.8828 166.474 47.3416 166.283 47.68 165.946C48.0184 165.608 48.2088 165.149 48.2093 164.672V127.714C48.2088 127.236 48.0184 126.778 47.68 126.44C47.3416 126.102 46.8828 125.912 46.4042 125.912H41.9639Z" fill="#9E5A64"/>
<path d="M33.1814 125.912C32.7028 125.912 32.244 126.102 31.9056 126.44C31.5672 126.778 31.3768 127.236 31.3763 127.714V164.672C31.3768 165.149 31.5672 165.608 31.9056 165.946C32.244 166.283 32.7028 166.474 33.1814 166.474H37.6218C38.1004 166.474 38.5592 166.283 38.8976 165.946C39.236 165.608 39.4264 165.149 39.4269 164.672V127.714C39.4264 127.236 39.236 126.778 38.8976 126.44C38.5592 126.102 38.1004 125.912 37.6218 125.912H33.1814Z" fill="#9E5A64"/>
<path d="M39.6601 87.1924C48.134 87.1924 55.0034 80.3325 55.0034 71.8704C55.0034 63.4083 48.134 56.5484 39.6601 56.5484C31.1863 56.5484 24.3169 63.4083 24.3169 71.8704C24.3169 80.3325 31.1863 87.1924 39.6601 87.1924Z" fill="#9E5A64"/>
<path d="M44.7661 78.3023C45.7607 78.2747 46.9985 78.2403 47.9521 77.5446C48.236 77.329 48.4693 77.054 48.6356 76.7388C48.8019 76.4236 48.8972 76.076 48.9148 75.7202C48.932 75.4673 48.8905 75.2139 48.7934 74.9797C48.6963 74.7456 48.5463 74.537 48.3551 74.3703C47.8571 73.95 47.1298 73.8514 46.346 74.0815L47.158 68.1553L46.5619 68.0737L45.6073 75.0407L46.1051 74.8126C46.6822 74.5482 47.4744 74.4137 47.9667 74.8292C48.0876 74.9378 48.1818 75.0728 48.2419 75.2236C48.3021 75.3745 48.3266 75.5372 48.3135 75.6991C48.2989 75.9639 48.2274 76.2224 48.1038 76.4572C47.9801 76.6919 47.8073 76.8973 47.5971 77.0594C46.855 77.6007 45.8684 77.6705 44.7494 77.7017L44.7661 78.3023Z" fill="#2F2E41"/>
<path d="M53.3467 68.6664H50.1061V69.2672H53.3467V68.6664Z" fill="#2F2E41"/>
<path d="M43.1179 68.6664H39.8773V69.2672H43.1179V68.6664Z" fill="#2F2E41"/>
<path d="M54.8631 137.013L49.3407 96.7548C49.2815 96.3232 49.0677 95.9275 48.7389 95.6411C48.4101 95.3547 47.9885 95.1969 47.5522 95.1969H43.3839C43.4012 95.0977 43.4103 94.9972 43.4109 94.8965V93.3943C43.4109 92.9163 43.2207 92.4578 42.8822 92.1197C42.5437 91.7817 42.0845 91.5917 41.6058 91.5917H37.9956C37.5169 91.5917 37.0578 91.7817 36.7192 92.1197C36.3807 92.4578 36.1906 92.9163 36.1905 93.3943V94.8965C36.1912 94.9972 36.2002 95.0977 36.2176 95.1969H32.0492C31.6129 95.1969 31.1913 95.3547 30.8625 95.6411C30.5337 95.9275 30.3199 96.3232 30.2607 96.7548L24.7383 137.013C24.7034 137.268 24.7235 137.527 24.7973 137.774C24.8712 138.02 24.997 138.248 25.1665 138.442C25.3359 138.636 25.5449 138.792 25.7796 138.898C26.0142 139.005 26.2689 139.06 26.5267 139.06H53.0747C53.3325 139.06 53.5872 139.005 53.8218 138.898C54.0565 138.792 54.2655 138.636 54.4349 138.442C54.6044 138.248 54.7302 138.02 54.8041 137.774C54.8779 137.527 54.8981 137.268 54.8631 137.013Z" fill="#2F2E41"/>
<path d="M46.2689 116.715V97.4659L46.4027 97.451C48.6913 97.2067 50.9918 97.7903 52.8862 99.0957C54.7805 100.401 56.1432 102.342 56.7265 104.565L60.1595 113.632L46.2689 116.715Z" fill="#2F2E41"/>
<path d="M38.8875 87.6705L28.275 83.5571C26.5396 82.8844 24.7945 82.2322 23.0684 81.5364C22.3289 81.2791 21.6478 80.8783 21.0643 80.3569C20.5562 79.8198 20.2099 79.1506 20.0651 78.426C19.697 76.8724 19.7636 75.1738 19.7898 73.5883C19.8102 71.8539 19.9531 70.1231 20.2176 68.4087C20.681 65.1872 21.7694 62.0868 23.4217 59.2815C26.3979 54.405 31.5257 50.7361 37.424 51.0289C40.1547 51.1645 42.9011 52.143 44.9299 54.0074C45.1416 54.26 45.379 54.4898 45.6385 54.6931C45.8188 54.7607 46.015 54.7738 46.2027 54.731C46.4503 54.7151 46.6981 54.7029 46.9461 54.6945C47.8066 54.6583 48.6686 54.6944 49.523 54.8025C51.0801 54.9705 52.5558 55.5824 53.7741 56.5652C54.788 57.4362 55.613 58.6657 55.6979 60.0322C55.7388 60.6594 55.635 61.2877 55.3943 61.8685C55.1536 62.4494 54.7825 62.9672 54.3097 63.3821C53.0435 64.4477 51.2371 64.0732 49.7183 63.9928L44.1545 63.6985L41.3355 63.5493C40.7551 63.5186 40.7568 64.42 41.3355 64.4506L48.8281 64.847C50.0322 64.9107 51.2731 65.0669 52.4781 64.9948C53.404 64.9529 54.2881 64.5977 54.9851 63.9876C55.6217 63.4037 56.0959 62.665 56.3614 61.8435C56.627 61.0221 56.6749 60.1459 56.5004 59.3005C56.1141 57.4566 54.7399 55.9313 53.1289 55.0239C50.9369 53.7891 48.319 53.6708 45.8662 53.8534L46.1853 53.9854C43.4108 51.0117 39.161 49.7561 35.1712 50.1955C30.9587 50.6594 27.212 53.0063 24.52 56.2154C21.5186 59.7933 19.883 64.2548 19.2472 68.8425C18.9163 71.3194 18.8073 73.8209 18.9217 76.3171C18.9169 77.418 19.1055 78.5112 19.4789 79.5471C19.9049 80.5552 20.6751 81.3798 21.6526 81.8742C22.7732 82.4145 23.9253 82.8871 25.1026 83.2895L29.0125 84.805L36.6926 87.7819L38.6476 88.5396C39.1894 88.7496 39.4241 87.8785 38.8875 87.6705Z" fill="#2F2E41"/>
<path d="M22.2011 57.0421C21.2789 57.0421 20.3773 56.769 19.6104 56.2573C18.8436 55.7457 18.2459 55.0184 17.893 54.1675C17.54 53.3166 17.4477 52.3803 17.6276 51.477C17.8075 50.5737 18.2516 49.7439 18.9038 49.0927C19.5559 48.4414 20.3868 47.9979 21.2914 47.8182C22.196 47.6386 23.1336 47.7308 23.9856 48.0832C24.8377 48.4357 25.566 49.0325 26.0784 49.7983C26.5908 50.5641 26.8643 51.4644 26.8643 52.3855C26.8629 53.6201 26.3711 54.8037 25.4969 55.6767C24.6227 56.5497 23.4374 57.0408 22.2011 57.0421ZM22.2011 48.6301C21.4574 48.6301 20.7303 48.8503 20.1119 49.263C19.4934 49.6756 19.0114 50.2621 18.7268 50.9483C18.4422 51.6345 18.3677 52.3896 18.5128 53.1181C18.6579 53.8466 19.0161 54.5157 19.542 55.0409C20.0679 55.5661 20.738 55.9238 21.4675 56.0687C22.197 56.2136 22.9531 56.1392 23.6402 55.855C24.3274 55.5707 24.9147 55.0894 25.328 54.4718C25.7412 53.8543 25.9617 53.1282 25.9617 52.3855C25.9606 51.3898 25.564 50.4353 24.859 49.7312C24.154 49.0272 23.1982 48.6312 22.2011 48.6301Z" fill="#2F2E41"/>
<path d="M100.152 85.9001L90.0588 78.1913L82.3393 88.2704L92.4324 95.9792L100.152 85.9001Z" fill="#F0F0F0"/>
<path d="M43.11 17.0848C44.7047 17.0835 46.2776 17.4552 47.7026 18.17C49.1277 18.8849 50.3653 19.923 51.3163 21.2013L57.2099 13.5061L39.5264 0L26.0017 17.659L33.6232 23.4802C34.3859 21.5912 35.6966 19.973 37.3871 18.8334C39.0775 17.6938 41.0705 17.0849 43.11 17.0848Z" fill="#F0F0F0"/>
<path d="M212.699 167H0.300847C0.221058 167 0.144536 166.968 0.088116 166.912C0.0316961 166.856 0 166.779 0 166.7C0 166.62 0.0316961 166.543 0.088116 166.487C0.144536 166.431 0.221058 166.399 0.300847 166.399H212.699C212.779 166.399 212.855 166.431 212.912 166.487C212.968 166.543 213 166.62 213 166.7C213 166.779 212.968 166.856 212.912 166.912C212.855 166.968 212.779 167 212.699 167Z" fill="#3F3D56"/>
<path d="M160.859 117.149H139.24C138.442 117.148 137.677 116.832 137.113 116.268C136.549 115.705 136.232 114.941 136.231 114.145V112.65C136.232 111.853 136.549 111.089 137.113 110.526C137.677 109.963 138.442 109.646 139.24 109.645H160.859C161.657 109.646 162.422 109.963 162.986 110.526C163.55 111.089 163.867 111.853 163.868 112.65V114.145C163.867 114.941 163.55 115.705 162.986 116.268C162.422 116.832 161.657 117.148 160.859 117.149Z" fill="#9E5A64"/>
<path d="M163.137 114.266H141.518C140.68 114.265 139.877 113.933 139.285 113.341C138.693 112.75 138.36 111.948 138.359 111.112V109.616C138.36 108.78 138.693 107.978 139.285 107.387C139.877 106.796 140.68 106.463 141.518 106.462H163.137C163.975 106.463 164.778 106.796 165.37 107.387C165.962 107.978 166.295 108.78 166.296 109.616V111.112C166.295 111.948 165.962 112.75 165.37 113.341C164.778 113.933 163.975 114.265 163.137 114.266ZM141.518 107.063C140.84 107.064 140.19 107.333 139.71 107.812C139.231 108.29 138.961 108.939 138.961 109.616V111.112C138.961 111.789 139.231 112.438 139.71 112.917C140.19 113.395 140.84 113.665 141.518 113.666H163.137C163.815 113.665 164.465 113.395 164.945 112.917C165.424 112.438 165.694 111.789 165.695 111.112V109.616C165.694 108.939 165.424 108.29 164.945 107.812C164.465 107.333 163.815 107.064 163.137 107.063H141.518Z" fill="#3F3D56"/>
</g>
<defs>
<clipPath id="clip0_9_116">
<rect width="213" height="167" fill="white"/>
</clipPath>
</defs>
</svg>
